<svg width="100" height="100" version="1.1" xmlns="http://www.w3.org/2000/svg" desc="Created with imagetracer.js version 1.2.6" ><path fill="rgb(0,2,5)" stroke="rgb(0,2,5)" stroke-width="1" opacity="0.00392156862745098" d="M 0 0 L 29 0.5 Q 13.1 3.6 6 15.5 L 0.5 29 L 0 0 Z " /><path fill="rgb(0,2,5)" stroke="rgb(0,2,5)" stroke-width="1" opacity="0.00392156862745098" d="M 71.5 0 L 100 0 L 100 28.5 L 99 28.5 L 96 18.5 L 84.5 6 L 74.5 1 L 71.5 1 L 71.5 0 Z " /><path fill="rgb(0,2,5)" stroke="rgb(0,2,5)" stroke-width="1" opacity="0.00392156862745098" d="M 0.5 71 Q 3.6 86.9 15.5 94 L 29 99.5 L 0 100 L 0.5 71 Z " /><path fill="rgb(0,2,5)" stroke="rgb(0,2,5)" stroke-width="1" opacity="0.00392156862745098" d="M 99.5 71 L 100 100 L 71 99.5 Q 86.9 96.4 94 84.5 L 99.5 71 Z " /><path fill="rgb(67,94,246)" stroke="rgb(67,94,246)" stroke-width="1" opacity="0.9921568627450981" d="M 29.5 0 L 64.5 0 L 65 2 L 0.5 50 L 0 29.5 Q 3.6 13.6 15.5 6 L 29.5 0 Z " /><path fill="rgb(223,167,242)" stroke="rgb(223,167,242)" stroke-width="1" opacity="1" d="M 60.5 19 L 65 19.5 L 60.5 20 L 60.5 19 Z " /><path fill="rgb(223,167,242)" stroke="rgb(223,167,242)" stroke-width="1" opacity="1" d="M 66.5 20 L 67.5 22 L 66.5 20 Z " /><path fill="rgb(223,167,242)" stroke="rgb(223,167,242)" stroke-width="1" opacity="1" d="M 55.5 22 L 56 24.5 L 55 27.5 L 58.5 32 L 63 33.5 L 50 41.5 L 64 49.5 L 59.5 50 L 50 56.5 L 57.5 62 L 64 63.5 L 41.5 77 L 43 74.5 Q 44 68 40.5 66 L 35 64.5 L 48 56.5 L 35 48.5 L 38.5 48 L 49 41.5 L 36.5 34 L 34.5 35 L 34.5 34 L 55.5 22 Z " /><path fill="rgb(223,167,242)" stroke="rgb(223,167,242)" stroke-width="1" opacity="1" d="M 68.5 28 L 69 29.5 L 66 31.5 L 68.5 28 Z " /><path fill="rgb(223,167,242)" stroke="rgb(223,167,242)" stroke-width="1" opacity="1" d="M 32.5 35 L 31.5 37 L 32.5 35 Z " /><path fill="rgb(223,167,242)" stroke="rgb(223,167,242)" stroke-width="1" opacity="1" d="M 29.5 40 L 30 42.5 L 29 42.5 L 29.5 40 Z " /><path fill="rgb(223,167,242)" stroke="rgb(223,167,242)" stroke-width="1" opacity="1" d="M 29.5 70 L 30 72.5 L 29 72.5 L 29.5 70 Z " /><path fill="rgb(223,167,242)" stroke="rgb(223,167,242)" stroke-width="1" opacity="1" d="M 31.5 76 L 32.5 78 L 31.5 76 Z " /><path fill="rgb(223,167,242)" stroke="rgb(223,167,242)" stroke-width="1" opacity="1" d="M 35.5 78 L 38 78.5 L 35.5 79 L 35.5 78 Z " /><path fill="rgb(161,26,230)" stroke="rgb(161,26,230)" stroke-width="1" opacity="0.984313725490196" d="M 86.5 10 Q 90.5 9.5 91 12.5 Q 92.1 15.8 89.5 15 L 66.5 33 L 69 29.5 Q 70.5 24 68 22.5 Q 69.8 24.1 71.5 21 L 86.5 10 Z " /><path fill="rgb(161,26,230)" stroke="rgb(161,26,230)" stroke-width="1" opacity="0.984313725490196" d="M 64.5 33 L 61.5 37 L 52.5 43 Q 49 41 53.5 39 L 64.5 33 Z " /><path fill="rgb(161,26,230)" stroke="rgb(161,26,230)" stroke-width="1" opacity="0.984313725490196" d="M 35.5 49 L 40 51 L 37.5 55 L 3.5 80 L 2 74.5 L 35.5 49 Z " /><path fill="rgb(113,60,238)" stroke="rgb(113,60,238)" stroke-width="1" opacity="0.9921568627450981" d="M 65 0 Q 75.2 -0.5 81 4.5 L 62.5 19 L 56.5 21 L 30 37.5 L 29 43.5 L 26.5 46 L 0 65 L 0 50.5 L 2.5 48 L 65 2 L 65 0 Z " /><path fill="rgb(254,254,254)" stroke="rgb(254,254,254)" stroke-width="1" opacity="1" d="M 57.5 21 L 56.5 23 L 57.5 21 Z " /><path fill="rgb(254,254,254)" stroke="rgb(254,254,254)" stroke-width="1" opacity="1" d="M 55.5 25 L 56 27.5 L 55 27.5 L 55.5 25 Z " /><path fill="rgb(254,254,254)" stroke="rgb(254,254,254)" stroke-width="1" opacity="1" d="M 56.5 29 L 58.5 32 L 56.5 29 Z " /><path fill="rgb(254,254,254)" stroke="rgb(254,254,254)" stroke-width="1" opacity="1" d="M 39.5 35 L 49 41.5 L 40.5 47 L 42 44.5 L 43 40.5 L 39.5 35 Z " /><path fill="rgb(254,254,254)" stroke="rgb(254,254,254)" stroke-width="1" opacity="1" d="M 31.5 45 L 32.5 47 L 31.5 45 Z " /><path fill="rgb(254,254,254)" stroke="rgb(254,254,254)" stroke-width="1" opacity="1" d="M 59.5 50 L 58.5 52 L 59.5 50 Z " /><path fill="rgb(254,254,254)" stroke="rgb(254,254,254)" stroke-width="1" opacity="1" d="M 66.5 51 L 67.5 53 L 66.5 51 Z " /><path fill="rgb(254,254,254)" stroke="rgb(254,254,254)" stroke-width="1" opacity="1" d="M 56.5 52 L 57 53.5 L 56 58.5 L 58 61.5 L 55.5 60 L 50 56.5 L 56.5 52 Z " /><path fill="rgb(254,254,254)" stroke="rgb(254,254,254)" stroke-width="1" opacity="1" d="M 67.5 60 L 66.5 62 L 67.5 60 Z " /><path fill="rgb(254,254,254)" stroke="rgb(254,254,254)" stroke-width="1" opacity="1" d="M 32.5 66 L 31.5 68 L 32.5 66 Z " /><path fill="rgb(254,254,254)" stroke="rgb(254,254,254)" stroke-width="1" opacity="1" d="M 40.5 66 L 41.5 68 L 40.5 66 Z " /><path fill="rgb(254,254,254)" stroke="rgb(254,254,254)" stroke-width="1" opacity="1" d="M 42.5 73 L 43 74.5 L 40 76.5 L 42.5 73 Z " /><path fill="rgb(173,17,228)" stroke="rgb(173,17,228)" stroke-width="1" opacity="0.9803921568627451" d="M 91.5 13 L 94 16.5 L 56.5 45 L 53 42.5 L 86.5 17 L 91 15 L 91.5 13 Z " /><path fill="rgb(173,17,228)" stroke="rgb(173,17,228)" stroke-width="1" opacity="0.9803921568627451" d="M 40.5 52 L 44 54.5 L 5.5 83 L 4 79 L 40.5 52 Z " /><path fill="rgb(203,11,206)" stroke="rgb(203,11,206)" stroke-width="1" opacity="0.9803921568627451" d="M 97.5 26 Q 100.1 25.2 99 28.5 L 100 33 L 92.5 37 L 69.5 55 L 66 50.5 L 97.5 26 Z " /><path fill="rgb(203,11,206)" stroke="rgb(203,11,206)" stroke-width="1" opacity="0.9803921568627451" d="M 30.5 77 L 37 79.5 L 18 93 L 17.5 95 L 13 91.5 L 17.5 86 L 30.5 77 Z " /><path fill="rgb(140,41,234)" stroke="rgb(140,41,234)" stroke-width="1" opacity="0.9803921568627451" d="M 81.5 4 L 88 9.5 L 69.5 23 L 63 18.5 L 81.5 4 Z " /><path fill="rgb(140,41,234)" stroke="rgb(140,41,234)" stroke-width="1" opacity="0.9803921568627451" d="M 29.5 43 L 33.5 48 Q 36.1 47.3 35 50 L 30.5 52 L 1.5 75 L 0 65 Q 16 55.8 29.5 43 Z " /><path fill="rgb(185,8,226)" stroke="rgb(185,8,226)" stroke-width="1" opacity="0.9882352941176471" d="M 93.5 17 Q 95.8 16.3 95 18.5 L 96 21.5 L 61.5 48 L 57 46 L 58.5 43 L 93.5 17 Z " /><path fill="rgb(185,8,226)" stroke="rgb(185,8,226)" stroke-width="1" opacity="0.9882352941176471" d="M 51.5 40 L 50.5 42 L 51.5 40 Z " /><path fill="rgb(185,8,226)" stroke="rgb(185,8,226)" stroke-width="1" opacity="0.9882352941176471" d="M 43.5 53 L 48 56.5 L 33.5 65 L 29 69.5 Q 29.8 73.3 27.5 74 L 10.5 87 L 8.5 87 L 6 83.5 L 44 54.5 L 43.5 53 Z " /><path fill="rgb(255,255,255)" stroke="rgb(255,255,255)" stroke-width="1" opacity="1" d="M 59.5 20 Q 66 19 68 22.5 L 69 27.5 L 65.5 32 L 62.5 33 L 56 28.5 Q 54.8 21.3 59.5 20 Z " /><path fill="rgb(255,255,255)" stroke="rgb(255,255,255)" stroke-width="1" opacity="1" d="M 34.5 35 Q 41 34 42 38.5 L 43 42.5 L 39.5 47 L 35.5 48 L 31 44.5 L 30 39.5 L 32.5 36 L 34.5 35 Z " /><path fill="rgb(255,255,255)" stroke="rgb(255,255,255)" stroke-width="1" opacity="1" d="M 60.5 50 Q 66.7 49.3 68 53.5 L 69 57.5 L 65.5 62 L 60.5 63 L 57 60.5 L 56 54.5 L 57 52 L 60.5 50 Z " /><path fill="rgb(255,255,255)" stroke="rgb(255,255,255)" stroke-width="1" opacity="1" d="M 35.5 65 Q 40.3 65.3 42 68.5 L 43 72.5 L 38.5 78 Q 32.7 78.8 31 75.5 L 30 69.5 L 35.5 65 Z " /><path fill="rgb(219,33,168)" stroke="rgb(219,33,168)" stroke-width="1" opacity="0.9921568627450981" d="M 98.5 41 L 100 41.5 L 100 50 L 33.5 100 L 29.5 100 L 25 99 L 29.5 93 L 46 82 Q 44.9 79.3 47.5 80 L 98.5 41 Z " /><path fill="rgb(197,9,222)" stroke="rgb(197,9,222)" stroke-width="1" opacity="0.9764705882352941" d="M 96.5 20 L 99 25.5 L 66.5 50 L 64.5 50 L 62 49 L 63.5 46 L 96 21.5 L 96.5 20 Z " /><path fill="rgb(197,9,222)" stroke="rgb(197,9,222)" stroke-width="1" opacity="0.9764705882352941" d="M 46.5 57 L 45.5 59 L 46.5 57 Z " /><path fill="rgb(197,9,222)" stroke="rgb(197,9,222)" stroke-width="1" opacity="0.9764705882352941" d="M 28.5 73 Q 30.8 72.3 30 74.5 L 31 76.5 L 12.5 91 L 9.5 87 L 28.5 73 Z " /><path fill="rgb(211,24,187)" stroke="rgb(211,24,187)" stroke-width="1" opacity="0.9882352941176471" d="M 98.5 33 L 100 33.5 L 100 41 L 50.5 78 L 46 80 Q 47.1 82.7 44.5 82 L 23.5 98 L 18 96 Q 16.5 92.3 19.5 93 L 38.5 78 L 65.5 63 L 69 59.5 Q 68 54 71.5 53 L 98.5 33 Z " /><path fill="rgb(228,46,145)" stroke="rgb(228,46,145)" stroke-width="1" opacity="0.996078431372549" d="M 98.5 50 L 100 50.5 L 100 64 L 91.5 69 L 51.5 100 L 34.5 100 L 36.5 97 L 98.5 50 Z " /><path fill="rgb(243,66,111)" stroke="rgb(243,66,111)" stroke-width="1" opacity="0.9607843137254902" d="M 98.5 64 Q 101.5 63.5 100 70.5 Q 96.4 86.4 84.5 94 Q 74.2 102.7 52.5 100 L 54.5 97 L 98.5 64 Z " /></svg>