<svg width="100" height="101" viewBox="0 0 100 101" fill="none" xmlns="http://www.w3.org/2000/svg">
    <rect y="0.188965" width="100" height="100" rx="30" fill="#6449FC"/>
    <path opacity="0.5" d="M67.2585 52.3817L39.1406 36.1692C35.6474 34.1556 31.1402 35.363 29.1239 38.8477C27.1075 42.3363 28.3166 46.8375 31.806 48.8511L59.9239 65.0636C63.4171 67.0773 67.9243 65.8698 69.9406 62.3851C71.9608 58.8965 70.7518 54.3954 67.2585 52.3817Z" fill="white"/>
    <path opacity="0.5" d="M67.263 32.6582L39.1451 48.8707C35.6519 50.8844 31.1448 49.677 29.1284 46.1922C27.1121 42.7036 28.3211 38.2025 31.8105 36.1889L59.9284 19.9764C63.4216 17.9627 67.9287 19.1701 69.9451 22.6549C71.9614 26.1434 70.7562 30.6446 67.263 32.6582Z" fill="white"/>
    <path opacity="0.5" d="M67.2585 65.0608L39.1406 81.2733C35.6474 83.287 31.1402 82.0796 29.1239 78.5948C27.1075 75.1062 28.3166 70.6051 31.806 68.5914L59.9239 52.3789C63.4171 50.3653 67.9242 51.5727 69.9406 55.0575C71.9569 58.5499 70.7517 63.0472 67.2585 65.0608Z" fill="white"/>
    <path d="M66.6876 32.9526C70.3581 31.2465 71.9517 26.8905 70.247 23.2231C68.5424 19.5558 64.185 17.9659 60.5145 19.672C56.844 21.3782 55.2504 25.7342 56.9551 29.4015C58.6597 33.0688 63.0171 34.6587 66.6876 32.9526Z" fill="white"/>
    <path d="M63.6151 66.0459C67.6638 66.0459 70.9459 62.7681 70.9459 58.7248C70.9459 54.6815 67.6638 51.4038 63.6151 51.4038C59.5664 51.4038 56.2843 54.6815 56.2843 58.7248C56.2843 62.7681 59.5664 66.0459 63.6151 66.0459Z" fill="white"/>
    <path d="M42.6277 76.6723C43.5646 72.7386 41.1309 68.7912 37.1919 67.8556C33.253 66.9199 29.3003 69.3504 28.3635 73.2841C27.4266 77.2178 29.8603 81.1652 33.7992 82.1008C37.7382 83.0364 41.6908 80.606 42.6277 76.6723Z" fill="white"/>
    <path d="M35.4782 49.8362C39.5269 49.8362 42.809 46.5584 42.809 42.5151C42.809 38.4718 39.5269 35.1941 35.4782 35.1941C31.4296 35.1941 28.1475 38.4718 28.1475 42.5151C28.1475 46.5584 31.4296 49.8362 35.4782 49.8362Z" fill="white"/>
</svg>
